<svg width="208" height="33" viewBox="0 0 208 33" fill="none" xmlns="http://www.w3.org/2000/svg"><path d="M25.7539 27.3513L24.8956 29.6051C24.7145 30.0804 24.375 30.4787 23.9344 30.7329C23.4938 30.9871 22.9791 31.0816 22.4769 31.0006L20.0961 30.6194C19.9422 30.5951 19.7849 30.6035 19.6343 30.6438C19.4838 30.6841 19.3434 30.7555 19.2222 30.8534L17.3519 32.3738C16.9577 32.695 16.4648 32.8704 15.9564 32.8704C15.4479 32.8704 14.955 32.695 14.5609 32.3738L12.6905 30.8534C12.5691 30.7552 12.4283 30.6836 12.2774 30.6433C12.1264 30.603 11.9687 30.5948 11.8144 30.6194L9.43361 31.0006C8.93145 31.0816 8.4167 30.9871 7.97612 30.7329C7.53553 30.4787 7.19605 30.0804 7.01488 29.6051L6.15662 27.3513C6.10088 27.2061 6.01535 27.0741 5.90555 26.9639C5.79574 26.8537 5.66409 26.7678 5.51905 26.7115L3.26529 25.8533C2.78974 25.6724 2.39117 25.333 2.13692 24.8923C1.88267 24.4517 1.78831 23.9367 1.86978 23.4345L2.25098 21.0537C2.27676 20.9005 2.27024 20.7437 2.23185 20.5932C2.19346 20.4427 2.12405 20.3019 2.02806 20.1798L0.496569 18.3095C0.175387 17.9153 0 17.4224 0 16.914C0 16.4055 0.175387 15.9126 0.496569 15.5185L2.01691 13.6481C2.1129 13.526 2.18231 13.3852 2.2207 13.2348C2.25909 13.0843 2.26561 12.9274 2.23984 12.7743L1.86978 10.3934C1.78831 9.89124 1.88267 9.37631 2.13692 8.93563C2.39117 8.49495 2.78974 8.15553 3.26529 7.97471L5.51905 7.11422C5.66444 7.0592 5.79646 6.9739 5.90638 6.86399C6.0163 6.75407 6.1016 6.62204 6.15662 6.47666L7.01711 4.22289C7.19793 3.74734 7.53734 3.34878 7.97802 3.09452C8.4187 2.84027 8.93364 2.74591 9.43584 2.82739L11.8144 3.20859C11.9676 3.23436 12.1244 3.22784 12.2749 3.18945C12.4254 3.15106 12.5662 3.08165 12.6883 2.98566L14.5586 1.46532C14.9528 1.14414 15.4457 0.96875 15.9541 0.96875C16.4626 0.96875 16.9555 1.14414 17.3497 1.46532L19.22 2.98566C19.3421 3.08165 19.4829 3.15106 19.6334 3.18945C19.7839 3.22784 19.9407 3.23436 20.0939 3.20859L22.4747 2.82739C22.9769 2.74591 23.4918 2.84027 23.9325 3.09452C24.3732 3.34878 24.7126 3.74734 24.8934 4.22289L25.7517 6.47666C25.8079 6.62169 25.8939 6.75335 26.0041 6.86315C26.1143 6.97296 26.2462 7.05848 26.3915 7.11422L28.6452 7.97471C29.1205 8.15588 29.5188 8.49537 29.773 8.93595C30.0272 9.37654 30.1218 9.89128 30.0407 10.3934L29.6618 12.772C29.6375 12.926 29.6458 13.0833 29.6862 13.2338C29.7265 13.3843 29.7979 13.5247 29.8958 13.6459L31.4162 15.5162C31.7374 15.9104 31.9127 16.4033 31.9127 16.9118C31.9127 17.4202 31.7374 17.9131 31.4162 18.3073L29.8958 20.1776C29.7979 20.2988 29.7265 20.4392 29.6862 20.5897C29.6458 20.7402 29.6375 20.8975 29.6618 21.0515L30.043 23.4323C30.124 23.9345 30.0295 24.4492 29.7753 24.8898C29.5211 25.3304 29.1228 25.6699 28.6475 25.851L26.3937 26.7093C26.248 26.7655 26.1158 26.8517 26.0056 26.9623C25.8954 27.0729 25.8096 27.2054 25.7539 27.3513V27.3513Z" fill="#FFC800"/><path d="M22.1315 14.7772C22.7158 16.0753 22.8294 17.5365 22.4527 18.9094C22.076 20.2822 21.2326 21.4809 20.0676 22.299C18.9026 23.1172 17.4889 23.5038 16.0697 23.3922C14.6505 23.2807 13.3145 22.678 12.2917 21.6878C11.2114 22.0827 10.0349 22.1316 8.92561 21.8276C7.81629 21.5236 6.8291 20.8818 6.10105 19.9914C6.02906 19.9025 5.97913 19.7979 5.95532 19.6861C5.93152 19.5742 5.93453 19.4583 5.9641 19.3479C5.99367 19.2374 6.04896 19.1356 6.12546 19.0506C6.20195 18.9656 6.29748 18.8999 6.40422 18.8589L9.36689 17.7131L7.86215 15.5663C7.66708 15.287 7.5441 14.9638 7.50417 14.6254C7.46423 14.287 7.50856 13.9441 7.63323 13.627C7.7579 13.3099 7.95903 13.0286 8.21872 12.808C8.4784 12.5875 8.78859 12.4346 9.12167 12.3629C10.8159 12.0018 11.9053 11.6518 12.3897 11.3129C12.8742 10.9741 13.5638 10.0824 14.4585 8.63782C14.639 8.34802 14.8885 8.10751 15.1847 7.93783C15.481 7.76814 15.8147 7.67458 16.156 7.66552C16.4973 7.65646 16.8355 7.7322 17.1403 7.88593C17.4451 8.03967 17.7071 8.26661 17.9027 8.54643L19.3985 10.6776L21.4538 8.31235C21.5287 8.22592 21.623 8.15843 21.7289 8.11541C21.8349 8.07239 21.9495 8.05507 22.0635 8.06485C22.1774 8.07464 22.2874 8.11125 22.3845 8.17171C22.4816 8.23216 22.5629 8.31473 22.622 8.41267C23.207 9.39445 23.4739 10.5332 23.3861 11.6727C23.2983 12.8122 22.8601 13.8966 22.1315 14.7772ZM16.8215 24.9247L15.232 24.7018C14.9645 24.663 14.6925 24.7322 14.476 24.894C14.2594 25.0558 14.116 25.2969 14.0773 25.5645C14.0386 25.832 14.1077 26.104 14.2695 26.3205C14.4313 26.5371 14.6725 26.6805 14.94 26.7192L16.5294 26.9421C16.7973 26.9794 17.0689 26.9087 17.2847 26.7457C17.5004 26.5826 17.6425 26.3406 17.6797 26.0727C17.717 25.8049 17.6463 25.5333 17.4833 25.3175C17.3202 25.1018 17.0782 24.9597 16.8103 24.9225L16.8215 24.9247ZM25.1745 17.7911C24.9105 17.7349 24.635 17.7857 24.4085 17.9324C24.1819 18.0791 24.0229 18.3097 23.9662 18.5736L23.634 20.1541C23.6018 20.2867 23.5965 20.4244 23.6185 20.5591C23.6405 20.6938 23.6894 20.8227 23.7622 20.9381C23.8349 21.0536 23.9302 21.1532 24.0422 21.2311C24.1542 21.3091 24.2808 21.3637 24.4143 21.3918C24.5479 21.4199 24.6857 21.4208 24.8196 21.3946C24.9535 21.3684 25.0808 21.3156 25.1939 21.2392C25.3071 21.1629 25.4037 21.0646 25.4781 20.9502C25.5525 20.8357 25.6031 20.7076 25.627 20.5732V20.5732L25.9591 19.0127C26.0161 18.7476 25.9654 18.4707 25.8182 18.2429C25.6711 18.0151 25.4396 17.855 25.1745 17.7978V17.7911Z" fill="white"/><path d="M107.124 18.3074C107.124 15.4228 109.354 13.3875 112.298 13.3875C115.243 13.3875 117.481 15.4228 117.481 18.3074C117.481 21.192 115.252 23.2296 112.307 23.2296C109.363 23.2296 107.124 21.172 107.124 18.3074ZM114.559 18.3074C114.559 16.9699 113.698 15.9667 112.33 15.9667C110.961 15.9667 110.1 16.9587 110.1 18.3074C110.1 19.6561 110.961 20.6481 112.33 20.6481C113.698 20.6481 114.559 19.6918 114.559 18.3074ZM105.183 16.0313C105.375 16.4165 105.47 16.8428 105.459 17.273C105.459 18.3186 104.906 19.2794 104.015 20.0172C105.238 20.5946 105.967 21.999 105.967 23.3165C105.967 25.7887 103.937 27.4428 100.84 27.4428C97.7437 27.4428 95.7129 25.8222 95.7129 23.3165C95.7028 22.64 95.8798 21.9739 96.2244 21.3917C96.569 20.8095 97.0678 20.3339 97.6657 20.0172C96.7494 19.2771 96.2211 18.3186 96.2211 17.273C96.2211 15.1062 97.9421 13.5056 100.68 13.5056C102.291 13.5056 102.764 13.7776 103.691 13.7776C104.319 13.8039 104.941 13.6408 105.475 13.3094C105.66 13.1917 105.873 13.1241 106.092 13.1133C106.456 13.1133 106.643 13.4744 106.643 13.9091C106.665 14.3739 106.534 14.8331 106.271 15.2165C106.007 15.5998 105.625 15.886 105.183 16.0313V16.0313ZM103.087 23.2296C103.087 22.1306 102.227 21.357 100.858 21.357C99.4892 21.357 98.6287 22.0971 98.6287 23.2296C98.6287 24.2751 99.5761 25.1021 100.858 25.1021C102.14 25.1021 103.087 24.2751 103.087 23.2296V23.2296ZM99.05 17.4335C99.073 17.8934 99.2718 18.3269 99.6054 18.6443C99.939 18.9617 100.382 19.1387 100.842 19.1387C101.303 19.1387 101.746 18.9617 102.079 18.6443C102.413 18.3269 102.612 17.8934 102.635 17.4335C102.635 16.4415 101.908 15.7549 100.851 15.7549C99.7946 15.7549 99.05 16.4125 99.05 17.438V17.4335ZM94.3686 18.4991V21.9388C94.3686 22.6076 94.1145 22.8751 93.3967 22.8751H92.4269C91.698 22.8751 91.455 22.6032 91.455 21.9388V18.595C91.455 17.7456 91.3123 17.1371 91.0091 16.7559C90.8293 16.5424 90.6019 16.3741 90.3452 16.2645C90.0885 16.1549 89.8097 16.1071 89.5312 16.125C89.2451 16.1131 88.9599 16.1634 88.6951 16.2723C88.4304 16.3812 88.1923 16.5462 87.9974 16.7559C87.6675 17.1371 87.4468 17.7456 87.4468 18.5749V21.9188C87.4468 22.6054 87.1392 22.8551 86.4771 22.8551H85.5141C84.8453 22.8551 84.5443 22.6054 84.5443 21.9188V14.2145C84.5443 13.7687 84.7673 13.5814 85.095 13.5814C85.5921 13.5814 86.2965 13.996 86.8159 14.7919C87.2157 14.3572 87.7017 14.0106 88.2429 13.7742C88.7841 13.5378 89.3686 13.4167 89.9592 13.4187C91.3837 13.4187 92.5183 13.9091 93.2696 14.7362C94.0209 15.5632 94.3731 16.6867 94.3731 18.5036L94.3686 18.4991ZM79.1719 10.7525C79.1818 10.3332 79.3561 9.9347 79.6572 9.64278C79.9583 9.35087 80.362 9.18898 80.7814 9.19202H80.8371C81.0536 9.18593 81.2689 9.22496 81.4695 9.30661C81.67 9.38827 81.8514 9.51077 82.002 9.66633C82.1526 9.82188 82.2693 10.0071 82.3444 10.2102C82.4196 10.4132 82.4517 10.6297 82.4386 10.8459C82.4256 11.062 82.3677 11.2731 82.2687 11.4656C82.1696 11.6582 82.0316 11.828 81.8633 11.9644C81.6951 12.1007 81.5003 12.2005 81.2914 12.2574C81.0825 12.3144 80.864 12.3272 80.6498 12.2951C80.2507 12.2823 79.8725 12.1137 79.5962 11.8253C79.3199 11.5369 79.1676 11.1518 79.1719 10.7525V10.7525ZM79.3613 21.9388V14.7139C79.3613 14.0451 79.6155 13.7575 80.3311 13.7575H81.303C82.0297 13.7575 82.2727 14.0295 82.2727 14.7139V21.9388C82.2727 22.6076 82.0186 22.8751 81.303 22.8751H80.3311C79.6244 22.8707 79.3613 22.6076 79.3613 21.9388ZM74.2096 21.9388V12.8747C74.2096 10.5987 75.4891 9.30794 76.5815 9.30794C76.9114 9.30794 77.1321 9.53087 77.1321 9.93882V21.9388C77.1321 22.6232 76.8579 22.8751 76.1624 22.8751H75.1904C74.5261 22.8707 74.2185 22.6299 74.2185 21.9388H74.2096ZM62.1962 18.3074C62.1962 15.4228 64.4254 13.3875 67.3702 13.3875C70.3151 13.3875 72.5443 15.4228 72.5443 18.3074C72.5443 21.192 70.3151 23.2296 67.3702 23.2296C64.4254 23.2296 62.1962 21.172 62.1962 18.3074ZM69.5995 18.3074C69.5995 16.9699 68.739 15.9667 67.3702 15.9667C66.0015 15.9667 65.141 16.9587 65.141 18.3074C65.141 19.6561 66.0015 20.6481 67.3702 20.6481C68.739 20.6481 69.5973 19.6918 69.5973 18.3074H69.5995ZM60.6937 14.7139V22.4137C60.6937 22.8595 60.4707 23.0445 60.143 23.0445C59.6459 23.0445 58.9392 22.6299 58.4443 21.8586C58.057 22.292 57.58 22.6361 57.0465 22.8671C56.5131 23.098 55.9358 23.2103 55.3546 23.1961C54.247 23.2292 53.1689 22.8358 52.3429 22.0971C51.4824 21.2701 51.0054 20.0061 51.0054 18.1982V14.7139C51.0054 14.0451 51.2595 13.7575 51.9773 13.7575H52.947C53.676 13.7575 53.919 14.0295 53.919 14.7139V17.9596C53.919 19.0587 54.1174 19.636 54.4696 20.0172C54.6432 20.1846 54.8493 20.3145 55.0752 20.3989C55.301 20.4833 55.5418 20.5203 55.7826 20.5077C56.0418 20.512 56.2991 20.4631 56.5388 20.3642C56.7784 20.2653 56.9952 20.1184 57.1759 19.9325C57.5393 19.5513 57.7265 18.9427 57.7265 18.0065V14.7139C57.7265 14.0295 58.0364 13.7575 58.6985 13.7575H59.6682C60.386 13.7464 60.6937 14.0295 60.6937 14.7139ZM49.0013 9.93436V22.4181C49.0013 22.864 48.7783 23.049 48.4484 23.049C47.9535 23.049 47.2469 22.6344 46.7497 21.8943C46.1322 22.6143 44.8861 23.2452 43.4415 23.2452C40.5435 23.2452 38.5996 21.1541 38.5996 18.323C38.5996 15.4919 40.6059 13.4008 43.4415 13.4008C44.3917 13.4002 45.3214 13.6767 46.1166 14.1967V12.8747C46.1166 10.5987 47.4296 9.30794 48.4885 9.30794C48.8029 9.30349 49.0013 9.52195 49.0013 9.93436ZM46.1032 18.3074C46.1032 16.903 45.1001 15.9667 43.8539 15.9667C43.548 15.9622 43.2443 16.0201 42.9615 16.1369C42.6787 16.2537 42.4227 16.4269 42.209 16.646C41.9954 16.8651 41.8287 17.1254 41.719 17.411C41.6093 17.6967 41.559 18.0017 41.5712 18.3074C41.5712 19.7118 42.5744 20.6481 43.8539 20.6481C45.1335 20.6481 46.0988 19.7453 46.0988 18.3074H46.1032ZM122.225 20.4876C122.003 19.7663 121.904 19.0126 121.933 18.2584C121.9 17.5052 121.993 16.7517 122.207 16.0291C122.705 14.5043 123.971 13.6617 125.64 13.6617C127.366 13.6617 128.614 14.5043 129.091 16.0113C129.307 16.7026 129.405 17.4253 129.381 18.1491C129.385 18.2287 129.371 18.3082 129.341 18.3822C129.312 18.4562 129.267 18.5231 129.21 18.5785C129.152 18.6339 129.084 18.6765 129.009 18.7036C128.934 18.7306 128.854 18.7415 128.775 18.7354H123.616C123.601 18.7335 123.586 18.7352 123.572 18.7401C123.558 18.7451 123.545 18.7533 123.534 18.7641C123.524 18.7749 123.516 18.788 123.511 18.8023C123.506 18.8167 123.505 18.8319 123.507 18.8469C123.496 19.2071 123.546 19.5666 123.654 19.9102C123.984 20.9201 124.791 21.435 125.883 21.435C126.654 21.4435 127.403 21.1763 127.995 20.6815C128.14 20.5463 128.329 20.4673 128.527 20.4586C128.612 20.4568 128.697 20.4722 128.776 20.504C128.855 20.5357 128.926 20.5832 128.986 20.6434C129.046 20.7036 129.093 20.7754 129.125 20.8544C129.156 20.9333 129.171 21.0179 129.169 21.1029C129.169 21.206 129.147 21.3079 129.106 21.4026C129.065 21.4972 129.006 21.5825 128.931 21.6535C128.074 22.448 126.943 22.8816 125.774 22.864C123.946 22.8729 122.718 22.028 122.221 20.4876H122.225ZM127.691 17.5138C127.707 17.5161 127.722 17.5147 127.737 17.5099C127.751 17.5051 127.764 17.497 127.775 17.4861C127.786 17.4753 127.794 17.4621 127.799 17.4475C127.804 17.433 127.805 17.4175 127.803 17.4023C127.814 17.0676 127.77 16.7333 127.674 16.4125C127.379 15.5208 126.646 15.0349 125.654 15.0349C124.662 15.0349 123.928 15.5298 123.648 16.4125C123.55 16.7331 123.506 17.0675 123.518 17.4023C123.516 17.4173 123.517 17.4325 123.522 17.4469C123.527 17.4612 123.535 17.4743 123.545 17.4851C123.556 17.4959 123.569 17.5041 123.583 17.5091C123.597 17.5141 123.612 17.5157 123.627 17.5138H127.691ZM131.441 14.6158C131.433 14.5096 131.447 14.4028 131.482 14.3022C131.517 14.2016 131.573 14.1094 131.645 14.0313C131.717 13.9531 131.805 13.8908 131.903 13.8482C132 13.8055 132.106 13.7835 132.212 13.7835C132.319 13.7835 132.424 13.8055 132.522 13.8482C132.619 13.8908 132.707 13.9531 132.78 14.0313C132.852 14.1094 132.908 14.2016 132.943 14.3022C132.978 14.4028 132.992 14.5096 132.984 14.6158V14.8721H133.001C133.423 14.1922 134.268 13.6795 135.454 13.6795C137.362 13.6795 138.501 14.9814 138.501 16.9832V21.9388C138.509 22.0451 138.495 22.1518 138.46 22.2524C138.425 22.353 138.369 22.4452 138.297 22.5234C138.225 22.6015 138.137 22.6638 138.039 22.7064C137.942 22.7491 137.836 22.7711 137.73 22.7711C137.623 22.7711 137.518 22.7491 137.42 22.7064C137.322 22.6638 137.235 22.6015 137.162 22.5234C137.09 22.4452 137.034 22.353 136.999 22.2524C136.964 22.1518 136.95 22.0451 136.958 21.9388V17.3488C136.958 15.9333 136.316 15.1196 134.994 15.1196C133.802 15.1196 132.977 15.9645 132.977 17.2663V21.9388C132.985 22.0451 132.971 22.1518 132.936 22.2524C132.901 22.353 132.845 22.4452 132.773 22.5234C132.701 22.6015 132.613 22.6638 132.515 22.7064C132.417 22.7491 132.312 22.7711 132.206 22.7711C132.099 22.7711 131.994 22.7491 131.896 22.7064C131.798 22.6638 131.711 22.6015 131.638 22.5234C131.566 22.4452 131.51 22.353 131.475 22.2524C131.44 22.1518 131.426 22.0451 131.434 21.9388L131.441 14.6158ZM146.241 14.8387V14.6158C146.233 14.5096 146.247 14.4028 146.282 14.3022C146.317 14.2016 146.372 14.1094 146.445 14.0313C146.517 13.9531 146.605 13.8908 146.703 13.8482C146.8 13.8055 146.906 13.7835 147.012 13.7835C147.119 13.7835 147.224 13.8055 147.322 13.8482C147.419 13.8908 147.507 13.9531 147.58 14.0313C147.652 14.1094 147.707 14.2016 147.743 14.3022C147.778 14.4028 147.792 14.5096 147.784 14.6158V22.2309C147.784 24.8547 146.388 26.1766 143.947 26.1766C142.79 26.1766 141.689 25.6996 141.156 25.1311C141.02 25.0018 140.94 24.8241 140.933 24.6362C140.929 24.5427 140.945 24.4494 140.978 24.362C141.012 24.2746 141.063 24.1949 141.128 24.1278C141.193 24.0606 141.272 24.0075 141.358 23.9715C141.444 23.9355 141.537 23.9174 141.631 23.9184C141.859 23.9293 142.078 24.0128 142.255 24.1569C142.758 24.5357 143.371 24.7421 144.001 24.7455C145.414 24.7455 146.23 24.0477 146.23 22.3579V21.4038H146.212C145.766 22.1395 145.037 22.5608 143.76 22.5608C142.293 22.5608 141.245 21.7538 140.806 20.3761C140.585 19.6446 140.486 18.8817 140.512 18.1179C140.486 17.3542 140.585 16.5913 140.806 15.8597C141.252 14.4843 142.293 13.6773 143.76 13.6773C145.064 13.6773 145.797 14.1722 146.212 14.832L146.241 14.8387ZM146.038 19.7765C146.198 19.2412 146.267 18.6827 146.241 18.1246C146.265 17.5724 146.197 17.02 146.038 16.4906C145.726 15.5744 145.122 15.1151 144.168 15.1151C143.214 15.1151 142.607 15.5744 142.295 16.4906C142.136 17.02 142.068 17.5724 142.092 18.1246C142.066 18.6827 142.135 19.2412 142.295 19.7765C142.607 20.6949 143.211 21.1542 144.168 21.1542C145.124 21.1542 145.726 20.6882 146.038 19.7698V19.7765ZM152.432 22.7704C150.853 22.7704 150.285 21.999 150.285 20.4207V10.9241C150.277 10.8179 150.291 10.7112 150.326 10.6106C150.361 10.51 150.416 10.4178 150.489 10.3396C150.561 10.2615 150.649 10.1992 150.747 10.1565C150.844 10.1139 150.95 10.0919 151.056 10.0919C151.163 10.0919 151.268 10.1139 151.366 10.1565C151.463 10.1992 151.551 10.2615 151.623 10.3396C151.696 10.4178 151.751 10.51 151.786 10.6106C151.822 10.7112 151.835 10.8179 151.827 10.9241V20.3204C151.827 21.0561 152.066 21.3303 152.672 21.3303C152.768 21.3232 152.865 21.337 152.955 21.3706C153.045 21.4043 153.127 21.457 153.195 21.5251C153.263 21.5932 153.315 21.6752 153.348 21.7655C153.382 21.8557 153.395 21.9521 153.388 22.0481C153.388 22.4694 153.111 22.7637 152.596 22.7637L152.432 22.7704ZM154.855 11.1136C154.855 10.8458 154.961 10.5889 155.15 10.3996C155.34 10.2102 155.597 10.1038 155.865 10.1038C156.132 10.1038 156.389 10.2102 156.579 10.3996C156.768 10.5889 156.874 10.8458 156.874 11.1136C156.874 11.3815 156.768 11.6383 156.579 11.8277C156.389 12.0171 156.132 12.1235 155.865 12.1235C155.597 12.1235 155.34 12.0171 155.15 11.8277C154.961 11.6383 154.855 11.3815 154.855 11.1136V11.1136ZM155.093 14.6202C155.085 14.514 155.099 14.4073 155.134 14.3067C155.169 14.2061 155.225 14.1139 155.297 14.0357C155.37 13.9576 155.457 13.8953 155.555 13.8526C155.653 13.81 155.758 13.788 155.865 13.788C155.971 13.788 156.076 13.81 156.174 13.8526C156.272 13.8953 156.359 13.9576 156.432 14.0357C156.504 14.1139 156.56 14.2061 156.595 14.3067C156.63 14.4073 156.644 14.514 156.636 14.6202V21.9388C156.644 22.0451 156.63 22.1518 156.595 22.2524C156.56 22.353 156.504 22.4452 156.432 22.5234C156.359 22.6015 156.272 22.6638 156.174 22.7064C156.076 22.7491 155.971 22.7711 155.865 22.7711C155.758 22.7711 155.653 22.7491 155.555 22.7064C155.457 22.6638 155.37 22.6015 155.297 22.5234C155.225 22.4452 155.169 22.353 155.134 22.2524C155.099 22.1518 155.085 22.0451 155.093 21.9388V14.6202ZM158.883 21.9076C158.773 21.8397 158.681 21.7451 158.617 21.6325C158.552 21.5199 158.518 21.393 158.515 21.2634C158.516 21.1704 158.535 21.0785 158.571 20.9929C158.607 20.9073 158.661 20.8299 158.727 20.7649C158.794 20.7 158.872 20.649 158.959 20.6148C159.045 20.5806 159.138 20.5639 159.231 20.5656C159.415 20.5715 159.593 20.6294 159.746 20.7328C160.461 21.1541 161.215 21.5019 162.198 21.5019C163.466 21.5019 164.126 20.9513 164.126 20.1822C164.126 19.4465 163.796 19.0676 162.401 18.9338L161.482 18.8402C159.757 18.6574 158.858 17.7768 158.858 16.3635C158.858 14.6916 160.051 13.6884 162.106 13.6884C163.024 13.6709 163.931 13.8881 164.741 14.3193C164.873 14.3685 164.987 14.4558 165.069 14.5702C165.151 14.6846 165.197 14.8207 165.201 14.9613C165.201 15.1387 165.13 15.3088 165.005 15.4342C164.879 15.5596 164.709 15.6301 164.532 15.6301C164.34 15.6231 164.152 15.5737 163.981 15.4852C163.378 15.1929 162.717 15.0369 162.046 15.0282C160.945 15.0282 160.377 15.5231 160.377 16.2387C160.377 16.9543 160.78 17.3042 162.102 17.4313L163.02 17.5249C164.855 17.7256 165.662 18.5883 165.662 20.0195C165.662 21.7449 164.416 22.884 162.095 22.884C160.952 22.8885 159.834 22.5457 158.89 21.9009L158.883 21.9076ZM167.602 10.9308C167.593 10.8246 167.607 10.7179 167.642 10.6173C167.678 10.5167 167.733 10.4245 167.805 10.3463C167.878 10.2682 167.966 10.2059 168.063 10.1632C168.161 10.1206 168.266 10.0986 168.373 10.0986C168.479 10.0986 168.585 10.1206 168.682 10.1632C168.78 10.2059 168.868 10.2682 168.94 10.3463C169.013 10.4245 169.068 10.5167 169.103 10.6173C169.138 10.7179 169.152 10.8246 169.144 10.9308V14.8766H169.162C169.586 14.1967 170.428 13.684 171.614 13.684C173.525 13.684 174.662 14.9858 174.662 16.9877V21.9388C174.667 22.0435 174.651 22.1482 174.615 22.2465C174.579 22.3448 174.523 22.4348 174.451 22.5108C174.379 22.5869 174.292 22.6475 174.196 22.6889C174.1 22.7303 173.996 22.7516 173.891 22.7516C173.787 22.7516 173.683 22.7303 173.587 22.6889C173.49 22.6475 173.404 22.5869 173.331 22.5108C173.259 22.4348 173.204 22.3448 173.167 22.2465C173.131 22.1482 173.116 22.0435 173.121 21.9388V17.3488C173.121 15.9333 172.479 15.1196 171.157 15.1196C169.962 15.1196 169.137 15.9645 169.137 17.2663V21.9388C169.146 22.0451 169.132 22.1518 169.097 22.2524C169.061 22.353 169.006 22.4452 168.933 22.5234C168.861 22.6015 168.773 22.6638 168.676 22.7064C168.578 22.7491 168.473 22.7711 168.366 22.7711C168.26 22.7711 168.154 22.7491 168.057 22.7064C167.959 22.6638 167.871 22.6015 167.799 22.5234C167.726 22.4452 167.671 22.353 167.636 22.2524C167.601 22.1518 167.587 22.0451 167.595 21.9388L167.602 10.9308ZM182.852 22.7704C181.053 22.7704 180.4 22.0169 180.4 20.1822V15.2377C180.402 15.2226 180.401 15.2071 180.396 15.1925C180.391 15.178 180.383 15.1648 180.372 15.1539C180.361 15.1431 180.348 15.1349 180.333 15.1301C180.319 15.1253 180.303 15.124 180.288 15.1263H179.793C179.628 15.1263 179.469 15.0605 179.352 14.9435C179.235 14.8264 179.169 14.6676 179.169 14.5021C179.169 14.3365 179.235 14.1778 179.352 14.0607C179.469 13.9437 179.628 13.8779 179.793 13.8779H180.288C180.303 13.8801 180.318 13.8788 180.333 13.8741C180.347 13.8694 180.36 13.8615 180.371 13.8509C180.382 13.8403 180.39 13.8274 180.395 13.8131C180.4 13.7989 180.401 13.7837 180.4 13.7687V11.8404C180.394 11.7357 180.41 11.6311 180.446 11.5327C180.482 11.4344 180.538 11.3444 180.61 11.2684C180.682 11.1923 180.769 11.1317 180.865 11.0903C180.961 11.0489 181.065 11.0276 181.17 11.0276C181.275 11.0276 181.378 11.0489 181.475 11.0903C181.571 11.1317 181.658 11.1923 181.73 11.2684C181.802 11.3444 181.858 11.4344 181.894 11.5327C181.93 11.6311 181.946 11.7357 181.94 11.8404V13.7687C181.938 13.7837 181.94 13.7989 181.945 13.8131C181.95 13.8274 181.958 13.8403 181.969 13.8509C181.979 13.8615 181.993 13.8694 182.007 13.8741C182.021 13.8788 182.037 13.8801 182.051 13.8779H183.208C183.29 13.8779 183.372 13.894 183.447 13.9254C183.523 13.9568 183.592 14.0028 183.65 14.0607C183.708 14.1187 183.754 14.1875 183.785 14.2632C183.817 14.3389 183.833 14.4201 183.833 14.5021C183.833 14.5841 183.817 14.6652 183.785 14.741C183.754 14.8167 183.708 14.8855 183.65 14.9435C183.592 15.0014 183.523 15.0474 183.447 15.0788C183.372 15.1101 183.29 15.1263 183.208 15.1263H182.051C182.036 15.124 182.021 15.1253 182.006 15.1301C181.992 15.1349 181.979 15.1431 181.968 15.1539C181.957 15.1648 181.949 15.178 181.944 15.1925C181.939 15.2071 181.938 15.2226 181.94 15.2377V20.1198C181.94 21.0561 182.181 21.3303 183.115 21.3303C183.213 21.3201 183.313 21.3314 183.406 21.3634C183.5 21.3954 183.585 21.4473 183.657 21.5155C183.729 21.5837 183.785 21.6667 183.821 21.7586C183.858 21.8506 183.874 21.9493 183.868 22.0481C183.868 22.4694 183.594 22.7637 183.041 22.7637L182.852 22.7704ZM185.275 20.4943C185.052 19.7731 184.952 19.0194 184.981 18.265C184.981 17.2195 185.072 16.5953 185.257 16.0358C185.752 14.511 187.018 13.6683 188.69 13.6683C190.416 13.6683 191.664 14.511 192.141 16.018C192.358 16.7069 192.459 17.4271 192.44 18.1491C192.443 18.2285 192.43 18.3078 192.4 18.3816C192.371 18.4555 192.326 18.5223 192.269 18.5776C192.212 18.633 192.144 18.6757 192.069 18.7029C191.995 18.73 191.915 18.7411 191.836 18.7354H186.677C186.662 18.7332 186.647 18.7345 186.632 18.7393C186.617 18.7441 186.604 18.7522 186.593 18.7631C186.583 18.7739 186.574 18.7871 186.57 18.8017C186.565 18.8162 186.563 18.8317 186.566 18.8469C186.556 19.207 186.605 19.5663 186.713 19.9102C187.043 20.9201 187.852 21.435 188.942 21.435C189.71 21.4434 190.456 21.1787 191.046 20.6882C191.191 20.5531 191.379 20.4741 191.577 20.4653C191.662 20.4632 191.747 20.4784 191.826 20.51C191.905 20.5416 191.977 20.589 192.037 20.6492C192.098 20.7095 192.145 20.7814 192.177 20.8605C192.208 20.9396 192.223 21.0244 192.221 21.1096C192.22 21.2126 192.199 21.3144 192.158 21.4089C192.117 21.5035 192.057 21.5889 191.983 21.6602C191.123 22.4575 189.989 22.892 188.817 22.8729C187.007 22.8729 185.777 22.028 185.282 20.4876L185.275 20.4943ZM190.746 17.5205C190.761 17.5224 190.776 17.5207 190.79 17.5158C190.804 17.5108 190.817 17.5026 190.828 17.4918C190.838 17.481 190.846 17.4679 190.851 17.4536C190.856 17.4392 190.857 17.424 190.855 17.409C190.866 17.0744 190.823 16.7401 190.728 16.4192C190.433 15.5275 189.698 15.0416 188.708 15.0416C187.718 15.0416 186.983 15.5365 186.688 16.4192C186.592 16.74 186.548 17.0743 186.559 17.409C186.557 17.4242 186.558 17.4397 186.563 17.4542C186.568 17.4688 186.576 17.482 186.587 17.4928C186.598 17.5037 186.611 17.5118 186.625 17.5166C186.64 17.5214 186.655 17.5227 186.67 17.5205H190.746ZM194.337 21.9076C194.226 21.8401 194.134 21.7456 194.07 21.6329C194.006 21.5203 193.971 21.3931 193.969 21.2634C193.97 21.1704 193.989 21.0785 194.025 20.9929C194.061 20.9073 194.114 20.8299 194.181 20.7649C194.248 20.7 194.326 20.649 194.413 20.6148C194.499 20.5806 194.592 20.5639 194.685 20.5656C194.868 20.5713 195.046 20.6293 195.197 20.7328C195.915 21.1541 196.666 21.5019 197.65 21.5019C198.916 21.5019 199.576 20.9513 199.576 20.1822C199.576 19.4465 199.246 19.0676 197.85 18.9338L196.934 18.8402C195.224 18.6507 194.323 17.7702 194.323 16.3657C194.323 14.6938 195.516 13.6906 197.574 13.6906C198.489 13.6778 199.392 13.8988 200.198 14.3327C200.329 14.3818 200.443 14.4692 200.525 14.5836C200.607 14.6979 200.653 14.8341 200.657 14.9747C200.657 15.1521 200.586 15.3222 200.461 15.4476C200.335 15.573 200.165 15.6435 199.988 15.6435C199.796 15.6365 199.608 15.587 199.437 15.4986C198.837 15.2032 198.18 15.0426 197.511 15.0282C196.41 15.0282 195.839 15.5231 195.839 16.2387C195.839 16.9543 196.245 17.3042 197.565 17.4313L198.483 17.5249C200.32 17.7256 201.127 18.5883 201.127 20.0195C201.127 21.7449 199.879 22.884 197.547 22.884C196.404 22.8884 195.287 22.5456 194.344 21.9009L194.337 21.9076ZM205.982 22.7637C204.183 22.7637 203.53 22.0102 203.53 20.1755V15.2377C203.532 15.2226 203.531 15.2071 203.526 15.1925C203.522 15.178 203.513 15.1648 203.503 15.1539C203.492 15.1431 203.479 15.1349 203.464 15.1301C203.449 15.1253 203.434 15.124 203.419 15.1263H202.924C202.758 15.1263 202.6 15.0605 202.483 14.9435C202.365 14.8264 202.3 14.6676 202.3 14.5021C202.3 14.3365 202.365 14.1778 202.483 14.0607C202.6 13.9437 202.758 13.8779 202.924 13.8779H203.419C203.434 13.8801 203.449 13.8788 203.463 13.8741C203.478 13.8694 203.491 13.8615 203.502 13.8509C203.512 13.8403 203.521 13.8274 203.526 13.8131C203.531 13.7989 203.532 13.7837 203.53 13.7687V11.8404C203.525 11.7357 203.54 11.6311 203.577 11.5327C203.613 11.4344 203.669 11.3444 203.741 11.2684C203.813 11.1923 203.899 11.1317 203.996 11.0903C204.092 11.0489 204.196 11.0276 204.3 11.0276C204.405 11.0276 204.509 11.0489 204.605 11.0903C204.701 11.1317 204.788 11.1923 204.86 11.2684C204.932 11.3444 204.988 11.4344 205.024 11.5327C205.061 11.6311 205.076 11.7357 205.071 11.8404V13.7687C205.069 13.7837 205.07 13.7989 205.075 13.8131C205.08 13.8274 205.089 13.8403 205.099 13.8509C205.11 13.8615 205.123 13.8694 205.138 13.8741C205.152 13.8788 205.167 13.8801 205.182 13.8779H206.337C206.419 13.8779 206.5 13.894 206.576 13.9254C206.651 13.9568 206.72 14.0028 206.778 14.0607C206.836 14.1187 206.882 14.1875 206.914 14.2632C206.945 14.3389 206.961 14.4201 206.961 14.5021C206.961 14.5841 206.945 14.6652 206.914 14.741C206.882 14.8167 206.836 14.8855 206.778 14.9435C206.72 15.0014 206.651 15.0474 206.576 15.0788C206.5 15.1101 206.419 15.1263 206.337 15.1263H205.182C205.167 15.124 205.151 15.1253 205.137 15.1301C205.122 15.1349 205.109 15.1431 205.098 15.1539C205.087 15.1648 205.079 15.178 205.075 15.1925C205.07 15.2071 205.068 15.2226 205.071 15.2377V20.1198C205.071 21.0561 205.309 21.3303 206.245 21.3303C206.344 21.3205 206.443 21.3321 206.536 21.3642C206.63 21.3963 206.715 21.4482 206.787 21.5164C206.858 21.5845 206.914 21.6673 206.951 21.7591C206.988 21.8508 207.004 21.9494 206.999 22.0481C206.999 22.4694 206.723 22.7637 206.172 22.7637H205.982Z" fill="#001836"/></svg>