<svg width="18" height="18" viewBox="0 0 18 18" fill="none" xmlns="http://www.w3.org/2000/svg"><path fill-rule="evenodd" clip-rule="evenodd" d="M1.87558 9C1.87799 9.01354 1.8904 9.08374 1.95429 9.21954C2.02808 9.37639 2.14902 9.57505 2.3242 9.80455C2.67415 10.263 3.20009 10.7916 3.86815 11.2926C5.21009 12.2991 7.03028 13.125 9 13.125C10.9697 13.125 12.7899 12.2991 14.1319 11.2926C14.7999 10.7916 15.3259 10.263 15.6758 9.80455C15.851 9.57505 15.9719 9.37639 16.0457 9.21954C16.1096 9.08374 16.122 9.01354 16.1244 9C16.122 8.98646 16.1096 8.91626 16.0457 8.78046C15.9719 8.62361 15.851 8.42495 15.6758 8.19545C15.3259 7.73701 14.7999 7.2084 14.1319 6.70736C12.7899 5.7009 10.9697 4.875 9 4.875C7.03028 4.875 5.21009 5.7009 3.86815 6.70736C3.20009 7.2084 2.67415 7.73701 2.3242 8.19545C2.14902 8.42495 2.02808 8.62361 1.95429 8.78046C1.8904 8.91626 1.87799 8.98646 1.87558 9ZM2.81815 5.30736C4.37163 4.14224 6.55144 3.125 9 3.125C11.4486 3.125 13.6284 4.14224 15.1819 5.30736C15.9615 5.89211 16.6071 6.53139 17.0668 7.13361C17.2965 7.43444 17.4899 7.7393 17.6292 8.0355C17.763 8.31989 17.875 8.65498 17.875 9C17.875 9.34502 17.763 9.68011 17.6292 9.9645C17.4899 10.2607 17.2965 10.5656 17.0668 10.8664C16.6071 11.4686 15.9615 12.1079 15.1819 12.6926C13.6284 13.8578 11.4486 14.875 9 14.875C6.55144 14.875 4.37163 13.8578 2.81815 12.6926C2.03848 12.1079 1.39286 11.4686 0.933158 10.8664C0.703521 10.5656 0.510116 10.2607 0.370772 9.9645C0.236982 9.68011 0.125 9.34502 0.125 9C0.125 8.65498 0.236982 8.31989 0.370772 8.0355C0.510116 7.7393 0.703521 7.43444 0.933158 7.13361C1.39286 6.53139 2.03848 5.89211 2.81815 5.30736Z" fill="#777777"/><path fill-rule="evenodd" clip-rule="evenodd" d="M9 10.25C9.69036 10.25 10.25 9.69036 10.25 9C10.25 8.30964 9.69036 7.75 9 7.75C8.30964 7.75 7.75 8.30964 7.75 9C7.75 9.69036 8.30964 10.25 9 10.25ZM9 12C10.6569 12 12 10.6569 12 9C12 7.34315 10.6569 6 9 6C7.34315 6 6 7.34315 6 9C6 10.6569 7.34315 12 9 12Z" fill="#777777"/></svg>