<svg width="18" height="18" viewBox="0 0 18 18" fill="none" xmlns="http://www.w3.org/2000/svg"><path fill-rule="evenodd" clip-rule="evenodd" d="M16.0884 3.14242C16.4438 2.81527 16.4658 2.26156 16.1382 1.90609C15.8101 1.5516 15.2568 1.52914 14.9019 1.85727L12.6997 3.88949C11.583 3.4266 10.3291 3.12484 8.99512 3.12484C6.54639 3.12484 4.3667 4.14242 2.81348 5.30746C2.03369 5.89242 1.38818 6.53109 0.928223 7.13363C0.69873 7.43441 0.505371 7.7391 0.365723 8.035C0.231934 8.32016 0.120117 8.65512 0.120117 8.99984C0.120117 9.15316 0.14209 9.30453 0.178711 9.45101C0.224121 9.63363 0.291504 9.80648 0.365723 9.96469C0.505371 10.2606 0.69873 10.5653 0.928223 10.8661C1.13281 11.1336 1.37402 11.409 1.64746 11.6834C1.98877 12.0262 2.38037 12.367 2.81348 12.6922C2.87744 12.7401 2.94287 12.7879 3.00879 12.8358L1.90186 13.8573C1.54639 14.1844 1.52441 14.7381 1.85205 15.0936C2.18018 15.4481 2.7334 15.4705 3.08838 15.1424L16.0884 3.14242ZM4.32617 11.619L6.14551 9.94027C6.04785 9.64437 5.99512 9.32797 5.99512 8.99984C5.99512 7.34262 7.33838 5.99984 8.99512 5.99984C9.4082 5.99984 9.80176 6.08285 10.1597 6.23422L11.2524 5.22641C10.5376 5.0057 9.77783 4.87484 8.99512 4.87484C7.02539 4.87484 5.20508 5.70101 3.86328 6.70687C3.19531 7.20785 2.66943 7.73715 2.31934 8.19516C2.14404 8.42465 2.02344 8.62387 1.94922 8.78012C1.88574 8.91586 1.87305 8.98617 1.87061 8.99984L1.87988 9.03891C1.88965 9.07504 1.90918 9.13363 1.94922 9.21957C2.02344 9.37582 2.14404 9.57504 2.31934 9.80453C2.66943 10.2625 3.19531 10.7918 3.86328 11.2928C4.01172 11.4041 4.1665 11.5125 4.32617 11.619ZM15.6118 5.65023L14.3125 6.84945C14.8926 7.30746 15.354 7.78012 15.6709 8.19516C15.8462 8.42465 15.9668 8.62387 16.041 8.78012C16.1045 8.91586 16.1172 8.98617 16.1196 8.99984C16.1172 9.01351 16.1045 9.08383 16.041 9.21957C16.0024 9.30062 15.9517 9.3934 15.8867 9.49594C15.8267 9.59066 15.7549 9.69418 15.6709 9.80453C15.3208 10.2625 14.7949 10.7918 14.127 11.2928C12.7852 12.2987 10.9648 13.1248 8.99512 13.1248C8.5376 13.1248 8.08789 13.0799 7.65039 12.9989L6.11816 14.4139C7.01416 14.701 7.98145 14.8748 8.99512 14.8748C11.4438 14.8748 13.6235 13.8573 15.1768 12.6922C15.9565 12.1073 16.6021 11.4686 17.062 10.8661C17.2915 10.5653 17.4849 10.2606 17.6245 9.96469C17.7583 9.67953 17.8701 9.34457 17.8701 8.99984C17.8701 8.65512 17.7583 8.32016 17.6245 8.035C17.4849 7.7391 17.2915 7.43441 17.062 7.13363C16.9321 6.96371 16.7871 6.78988 16.6284 6.61605C16.3345 6.29281 15.9927 5.96664 15.6118 5.65023Z" fill="#777777"/></svg>